<svg xmlns="http://www.w3.org/2000/svg" xmlns:xlink="http://www.w3.org/1999/xlink" xmlns:fi="http://pattern.flaticon.com/" x="0" y="0" width="1920" height="960" viewBox="0 0 1920 960"><rect x="0px" y="0px" width="100%" height="100%" opacity="1" fill="#2e2e2e"/><defs><g transform="matrix(0.1697916491523753 0.04549553527192747 -0.04549553527192747 0.1697916491523753 -31.840209973161606 294.8837947208431)" id="L1_5"><path d="M454.976,43.056c-3.591-3.588-9.411-3.591-13.003,0l-95.329,95.326c-3.592,3.591-3.592,9.411-0.001,13.003    c1.796,1.795,4.148,2.692,6.502,2.692c2.352,0,4.706-0.897,6.502-2.692l95.329-95.326    C458.566,52.467,458.566,46.646,454.976,43.056z"/><path d="M480.9,68.571c-3.592-3.589-9.412-3.589-13.003,0l-95.328,95.328c-3.59,3.592-3.59,9.412-0.001,13.003    c1.796,1.795,4.15,2.692,6.502,2.692c2.352,0,4.706-0.897,6.502-2.692L480.9,81.573C484.491,77.982,484.491,72.161,480.9,68.571z"/><path d="M390.969,229.548L509.307,111.21c3.591-3.592,3.591-9.412,0-13.003c-3.592-3.588-9.412-3.591-13.003,0L377.968,216.545    c-14.579,14.578-36.871,18.403-55.47,9.521c-3.7-1.766-8.118-0.873-10.839,2.193l-40.209,45.303    c-0.016,0.017-0.034,0.032-0.05,0.05c-0.016,0.018-0.028,0.037-0.044,0.055L97.567,469.464c-0.044,0.05-0.088,0.101-0.131,0.152    c-0.573,0.673-1.114,1.264-1.662,1.813c-11.475,11.474-30.145,11.473-41.615,0c-5.558-5.557-8.619-12.948-8.619-20.808    s3.061-15.25,8.629-20.818c0.534-0.537,1.124-1.076,1.803-1.654c0.052-0.043,0.102-0.087,0.152-0.131l108.648-96.434    c3.798-3.371,4.143-9.182,0.773-12.979c-3.371-3.799-9.183-4.146-12.979-0.773L43.99,414.202    c-1.038,0.885-1.967,1.742-2.833,2.609c-9.031,9.031-14.005,21.038-14.005,33.81c0,12.771,4.973,24.779,14.004,33.81    c9.323,9.321,21.566,13.982,33.812,13.981c12.241,0,24.487-4.659,33.803-13.976c0.883-0.881,1.738-1.811,2.616-2.839    l132.432-149.206l132.434,149.208c0.877,1.029,1.732,1.959,2.609,2.834c9.321,9.321,21.565,13.981,33.809,13.981    c12.245,0,24.49-4.661,33.812-13.982c18.64-18.643,18.64-48.975,0.005-67.613c-0.88-0.883-1.811-1.738-2.838-2.615    l-152.391-135.26l29.815-33.592C345.231,253.911,372.565,247.949,390.969,229.548z M431.514,428.019    c0.05,0.044,0.101,0.088,0.152,0.131c0.673,0.573,1.264,1.114,1.813,1.662c11.473,11.474,11.473,30.143,0.001,41.615    c-11.475,11.473-30.144,11.473-41.622-0.005c-0.543-0.543-1.086-1.135-1.659-1.808c-0.043-0.051-0.087-0.102-0.131-0.152    L256.111,318.54l22.939-25.845L431.514,428.019z"/><path d="M427.379,16.278c-3.592-3.589-9.412-3.589-13.003,0L296.04,134.617c-18.406,18.404-24.366,45.735-15.807,69.897    l-36.415,32.322l-34.998-31.064c18.099-35.612,11.492-78.851-17.222-107.566c-28.518-28.518-61.55-48.587-93.011-56.508    c-32.843-8.267-61.001-2.748-79.295,15.545s-23.814,46.455-15.545,79.296c7.922,31.459,27.99,64.491,56.51,93.008    c28.714,28.716,71.952,35.323,107.566,17.223c0,0,34.225,38.558,34.659,39.048c1.817,2.047,4.342,3.09,6.88,3.09    c2.171,0,4.349-0.764,6.1-2.318l81.866-72.664c3.065-2.721,3.958-7.141,2.193-10.839c-8.884-18.601-5.058-40.891,9.521-55.468    L427.379,29.281C430.97,25.689,430.97,19.869,427.379,16.278z M210.131,266.737l-33.468-37.706    c-2.964-3.339-7.902-4.069-11.702-1.722c-29.478,18.177-67.188,13.754-91.704-10.763c-26.204-26.203-44.557-56.21-51.68-84.497    c-6.625-26.317-2.819-48.267,10.718-61.803C45.83,56.708,67.78,52.904,94.096,59.53c28.287,7.122,58.296,25.474,84.498,51.678    c24.516,24.515,28.94,62.225,10.762,91.703c-2.344,3.801-1.617,8.737,1.722,11.702l38.888,34.516L210.131,266.737z"/></g><g transform="matrix(0.078125 0 0 0.078125 67.5 67.5)" id="L1_7"><path d="M383.071,148.928c-3.905-3.904-10.237-3.904-14.143,0l-20,20c-3.905,3.905-3.905,10.237,0,14.143    c3.907,3.906,10.238,3.905,14.143,0l20-20C386.976,159.166,386.976,152.834,383.071,148.928z"/><path d="M143.071,148.928c-3.905-3.904-10.237-3.904-14.143,0l-20,20c-3.905,3.905-3.905,10.237,0,14.143    c3.907,3.906,10.238,3.905,14.143,0l20-20C146.976,159.166,146.976,152.834,143.071,148.928z"/><path d="M333.071,108.928c-3.905-3.904-10.237-3.904-14.143,0l-20,20c-3.905,3.905-3.905,10.237,0,14.143    c3.907,3.906,10.238,3.905,14.143,0l20-20C336.976,119.166,336.976,112.834,333.071,108.928z"/><path d="M213.071,108.928c-3.905-3.904-10.237-3.904-14.143,0l-20,20c-3.905,3.905-3.905,10.237,0,14.143    c3.907,3.906,10.238,3.905,14.143,0l20-20C216.976,119.166,216.976,112.834,213.071,108.928z"/><path d="M263.071,148.928c-3.905-3.904-10.237-3.904-14.143,0l-20,20c-3.905,3.905-3.905,10.237,0,14.143    c3.907,3.906,10.238,3.905,14.143,0l20-20C266.976,159.166,266.976,152.834,263.071,148.928z"/><path d="M512,356c0-16.542-13.458-30-30-30h-10v-32.23c0.412-0.358,0.832-0.701,1.237-1.07c6.491-5.917,20.049-9.7,28.889-9.812    c5.522-0.069,9.943-4.603,9.873-10.125c-0.069-5.479-4.532-9.874-9.997-9.874c-0.042,0-0.086,0-0.128,0.001    c-8.581,0.108-19.982,2.386-29.874,7.063V243.74c12.176-4.983,20.271-17.519,18.533-31.435C478.737,117.496,397.686,46,302,46h-92    c-95.686,0-176.737,71.496-188.533,166.301c-1.733,13.875,6.307,26.437,18.533,31.44v25.771    c-9.929-4.498-21.357-6.748-30.131-6.622c-5.522,0.072-9.94,4.608-9.868,10.131c0.072,5.478,4.535,9.868,9.997,9.868    c0.044,0,0.089,0,0.134-0.001c8.942-0.137,22.822,3.599,29.592,9.774c0.09,0.083,0.186,0.161,0.277,0.243V326H30    c-16.574,0-30,13.424-30,30c0,14.865,10.87,27.233,25.078,29.589c-2.337,6.169-2.505,12.909-0.338,19.313    C37.134,441.446,71.397,466,110,466h292c38.603,0,72.866-24.554,85.263-61.104c2.165-6.398,1.997-13.135-0.339-19.303    C500.864,383.301,512,371.17,512,356z M41.313,214.774C51.867,129.959,124.386,66,210,66h92    c85.614,0,158.133,63.959,168.687,148.779c0.722,5.779-3.787,10.811-9.356,11.184c-0.066,0.004-0.132,0.01-0.198,0.016    c-0.171,0.015-0.342,0.021-0.513,0.021H51.38C45.49,226,40.56,220.814,41.313,214.774z M413.238,277.92    c-21.975-20.039-51.502-20.039-73.477,0c-14.349,13.084-32.175,13.084-46.523,0c-21.975-20.039-51.502-20.039-73.477,0    c-14.349,13.084-32.175,13.084-46.523,0c-21.975-20.038-51.502-20.04-73.479,0.002C87.598,289.02,73.029,290.781,60,282.975V246    h392v37.555C439.241,290.654,425.047,288.689,413.238,277.92z M452,305.243V326H60v-21.057c5.407,1.871,10.956,2.807,16.5,2.806    c12.905,0,25.776-5.048,36.739-15.051c14.348-13.084,32.175-13.084,46.523,0c21.975,20.041,51.503,20.04,73.477,0    c14.349-13.084,32.176-13.084,46.523,0c21.975,20.041,51.503,20.04,73.477,0c14.348-13.085,32.175-13.083,46.523,0    C415.059,306.65,434.265,310.938,452,305.243z M468.32,398.479C458.68,426.902,432.028,446,402,446H110    c-30.028,0-56.68-19.098-66.317-47.515C41.608,392.355,46.901,386,53.46,386h405.08C465.123,386,470.382,392.385,468.32,398.479z     M482,366H30c-5.514,0-10-4.486-10-10c0-5.521,4.479-10,10-10h452c5.514,0,10,4.486,10,10C492,361.521,487.521,366,482,366z"/></g><g transform="matrix(0.08318913727998734 0 0 0.08318913727998734 242.5 67.5)" id="L1_8"><path d="M472,428.416h-48.8l-11.848-112.544l13.112,19.664l3.248,16.264c1.568,7.84,6.496,14.512,13.528,18.328    c3.984,2.16,8.36,3.248,12.76,3.248c3.368,0,6.752-0.64,9.976-1.928c6.944-2.776,12.448-8.376,15.112-15.368    c2.656-6.992,2.264-14.832-1.08-21.528l-6.848-13.704c-0.024-0.056-0.072-0.088-0.104-0.136c-0.016-0.04-0.016-0.08-0.032-0.12    l-48-88c-0.888-1.632-2.328-2.904-4.048-3.6l-21.68-8.672C413.568,207.104,424,186.96,424,164.416    c0-12.056-3.176-23.928-9.016-34.552l-4.128-41.296C423.736,83.112,432,72.4,432,60.416c0-17.224-17.096-31.312-38.424-31.976    C385.072,13.68,369.304,4.416,352,4.416c-17.304,0-33.072,9.264-41.576,24.024C289.096,29.104,272,43.192,272,60.416    c0,11.984,8.264,22.696,21.144,28.152l-4.128,41.296c-5.84,10.624-9.016,22.496-9.016,34.552    c0,22.544,10.432,42.688,26.712,55.896l-21.68,8.672c-1.28,0.512-2.408,1.352-3.272,2.432l-27,33.752l-32.624-26.096l-8.712-14.52    c-1.48-2.472-3.368-4.568-5.408-6.48v-21.656c0-10.416-6.712-19.216-16-22.528v-33.472h8c13.232,0,24-10.768,24-24v-48    c0-13.232-10.768-24-24-24h-32c-13.232,0-24,10.768-24,24v48c0,13.232,10.768,24,24,24h8v33.472c-9.288,3.312-16,12.112-16,22.528    v32c0,0.008,0,0.024,0,0.032c-2,4.76-2.896,9.952-2.248,15.264c1.144,9.256,6.384,17.32,14.376,22.12l15.136,9.08l53.184,46.536    c8.936,7.808,22.032,7.976,31.168,0.368l22.36-18.64L280.8,428.416H140.944l9.384-18.768c14.976-5.784,25.672-20.24,25.672-37.232    v-17.472c9.288-3.312,16-12.112,16-22.528c0-13.232-10.768-24-24-24H24c-13.232,0-24,10.768-24,24    c0,10.416,6.712,19.216,16,22.528v17.472c0,16.992,10.696,31.448,25.672,37.232l9.384,18.768H8c-4.416,0-8,3.584-8,8v32    c0,4.416,3.584,8,8,8h464c4.416,0,8-3.584,8-8v-32C480,432,476.416,428.416,472,428.416z M176,124.416h-8c-4.408,0-8-3.592-8-8    v-48c0-4.408,3.592-8,8-8h8V124.416z M463.696,341.696c1.368,2.736,1.528,5.824,0.44,8.688c-1.088,2.856-3.256,5.064-6.096,6.2    c-2.984,1.192-6.336,1-9.168-0.536c-2.832-1.536-4.832-4.232-5.464-7.392l-2.064-10.328l18.376-4.592L463.696,341.696z     M410.36,242.776l41.664,76.384l-16.496,4.12L407.4,281.088l-11.616-44.144L410.36,242.776z M392.8,292.416l14.32,136H296.888    l14.312-136H392.8z M314.384,276.416l11.792-44.84c0.32,0.12,0.648,0.208,0.968,0.32c1.608,0.592,3.224,1.16,4.88,1.64    c0.632,0.184,1.272,0.328,1.904,0.488c1.528,0.4,3.056,0.784,4.616,1.08c0.784,0.152,1.576,0.24,2.36,0.36    c1.448,0.224,2.888,0.464,4.36,0.608c1.032,0.096,2.072,0.104,3.104,0.16c1.216,0.064,2.408,0.184,3.632,0.184    s2.416-0.12,3.632-0.184c1.04-0.056,2.072-0.064,3.104-0.16c1.472-0.136,2.912-0.376,4.36-0.608c0.784-0.12,1.576-0.208,2.36-0.36    c1.56-0.296,3.088-0.688,4.616-1.08c0.632-0.168,1.272-0.304,1.904-0.488c1.656-0.48,3.28-1.04,4.88-1.64    c0.32-0.12,0.648-0.2,0.968-0.32l11.8,44.84H314.384z M288,60.416c0-8.672,10.992-16,24-16c0.464,0,0.904,0.056,1.352,0.104    l1.288,0.12c3.368,0.2,6.6-1.68,7.96-4.824c5.056-11.784,16.6-19.4,29.4-19.4s24.344,7.616,29.408,19.4    c1.352,3.144,4.632,5.088,7.96,4.824l1.288-0.12c0.44-0.048,0.88-0.104,1.344-0.104c13.008,0,24,7.328,24,16    c0,6.392-6.464,12.504-15.72,14.872c-3.832,0.976-6.376,4.608-5.984,8.544l4.864,48.584h-94.32l4.856-48.576    c0.392-3.936-2.152-7.568-5.984-8.544C294.464,72.92,288,66.808,288,60.416z M296,164.416c0-5.424,0.808-10.816,2.36-16h107.272    c1.56,5.184,2.368,10.576,2.368,16c0,22.208-13.032,41.384-31.816,50.432c-1.816,0.872-3.672,1.648-5.552,2.312    c-0.088,0.032-0.176,0.064-0.264,0.096c-11.92,4.168-24.832,4.168-36.752,0c-0.088-0.032-0.176-0.064-0.264-0.096    c-1.88-0.664-3.728-1.44-5.552-2.312C309.032,205.8,296,186.624,296,164.416z M192,60.416h8c4.408,0,8,3.592,8,8v48    c0,4.408-3.592,8-8,8h-8V60.416z M184,188.416c4.408,0,8,3.592,8,8v13.904c-0.048-0.008-0.104-0.008-0.152-0.016    c-0.192-0.024-0.36-0.112-0.552-0.136c-0.44-0.056-0.872,0.024-1.304-0.016c-1.392-0.112-2.768-0.128-4.16-0.048    c-0.696,0.04-1.384,0.04-2.064,0.128c-1.648,0.208-3.256,0.592-4.848,1.072c-0.68,0.208-1.336,0.424-2,0.672    c-0.304,0.112-0.616,0.184-0.912,0.304v-15.864H176C176,192.008,179.592,188.416,184,188.416z M180.376,252.112    c-3.752-2.248-6.208-6.024-6.736-10.36c-0.352-2.824,0.232-5.584,1.48-8.04c0.032-0.064,0.088-0.104,0.12-0.168    c0.344-0.656,0.688-1.216,1.04-1.736c0.432-0.6,0.856-1.208,1.384-1.736c1.12-1.128,2.424-1.984,3.792-2.648    c0.112-0.056,0.224-0.128,0.336-0.184c1.368-0.616,2.824-1,4.312-1.152c0.112-0.008,0.216-0.024,0.328-0.032    c1.448-0.12,2.912,0.008,4.352,0.336c0.152,0.032,0.304,0.064,0.448,0.104c1.496,0.4,2.952,1.016,4.288,1.928    c0.04,0.024,0.088,0.04,0.128,0.064c1.608,1.12,3.008,2.552,4.056,4.296l6.232,10.392l-15.168,15.168L180.376,252.112z     M261.376,309.52c-3.04,2.528-7.416,2.488-10.392-0.12l-47.288-41.376l12.888-12.888l34.408,27.528    c3.44,2.76,8.48,2.208,11.24-1.248l30.68-38.352l15.288-6.112l-11.304,42.968L261.376,309.52z M24,340.416c-4.408,0-8-3.592-8-8    c0-4.408,3.592-8,8-8h144c4.408,0,8,3.592,8,8c0,4.408-3.592,8-8,8H24z M32,372.416v-16h128v16c0,13.232-10.768,24-24,24H56    C42.768,396.416,32,385.648,32,372.416z M131.056,412.416l-8,16H104v-16H131.056z M88,412.416v16H68.944l-8-16H88z M464,460.416    H16v-16h48h64h160h128h48V460.416z"/><path d="M376,324.416h-48c-4.416,0-8,3.584-8,8v24c0,17.648,14.352,32,32,32s32-14.352,32-32v-24    C384,328,380.416,324.416,376,324.416z M368,356.416c0,8.824-7.176,16-16,16c-8.824,0-16-7.176-16-16v-16h32V356.416z"/><rect x="88px" y="244px" width="16px" height="40px"/><rect x="128px" y="260px" width="16px" height="32px"/><rect x="48px" y="260px" width="16px" height="32px"/><rect x="88px" y="212px" width="16px" height="16px"/><rect x="48px" y="228px" width="16px" height="16px"/><rect x="128px" y="228px" width="16px" height="16px"/></g><g transform="matrix(0.09765625 0 0 0.09765625 62.5 237.5)" id="L1_9"><path d="m118.5 63.5v25c0 10.752 8.748 19.5 19.5 19.5h236c10.752 0 19.5-8.748 19.5-19.5v-25c0-18.472-15.028-33.5-33.5-33.5h-208c-18.472 0-33.5 15.028-33.5 33.5zm260 0v25c0 2.481-2.019 4.5-4.5 4.5h-236c-2.481 0-4.5-2.019-4.5-4.5v-25c0-10.201 8.299-18.5 18.5-18.5h208c10.201 0 18.5 8.299 18.5 18.5z"/><path d="m256 295.257c22.325 0 40.019 5.136 52.589 15.265 3.227 2.599 7.947 2.089 10.546-1.135 2.599-3.225 2.091-7.947-1.134-10.546-15.305-12.332-36.165-18.584-62.001-18.584-54.432-1.204-87.734 31.683-89.335 75.802-12.783 8.296-12.785 27.527-.014 35.827v10.573c0 12.963 10.546 23.51 23.51 23.51h131.68c12.963 0 23.51-10.547 23.51-23.51v-10.574c12.777-8.306 12.762-27.538-.015-35.828-.186-5.076-1.099-14.83-5.036-25.621-1.42-3.891-5.728-5.896-9.616-4.475-3.892 1.419-5.896 5.725-4.476 9.616 2.366 6.483 3.404 12.504 3.851 16.898h-148.123c1.77-17.828 12.665-57.218 74.064-57.218zm74.35 107.203c0 4.692-3.817 8.51-8.51 8.51h-131.68c-4.692 0-8.51-3.818-8.51-8.51v-6.983h148.7zm3.129-34.982c8.605.306 8.599 12.697 0 13h-154.958c-8.605-.306-8.599-12.697 0-13z"/><path d="m465.582 206.904-42.082-78.292v-71.112c0-31.706-25.794-57.5-57.5-57.5h-24.487c-9.931.344-9.923 14.66 0 15h24.487c23.435 0 42.5 19.065 42.5 42.5v65.5h-305v-65.5c0-23.435 19.065-42.5 42.5-42.5h160.025c9.931-.344 9.923-14.66 0-15h-160.025c-31.706 0-57.5 25.794-57.5 57.5v71.112l-42.106 78.338c-.586 1.091-.894 2.312-.894 3.551v191.654c.344 9.931 14.659 9.923 15 0v-184.155h391v260.5c0 10.201-8.299 18.5-18.5 18.5h-354c-10.201 0-18.5-8.299-18.5-18.5v-41.064c-.344-9.931-14.659-9.923-15 0v41.064c0 18.472 15.028 33.5 33.5 33.5h354c18.472 0 33.5-15.028 33.5-33.5v-268c0-1.303-.333-2.528-.918-3.596zm-54.065-68.904 34.937 65h-380.908l34.937-65z"/></g><g transform="matrix(0.03906059265136719 0 0 0.03906059265136719 252.5 340)" id="L1_10"><path d="m375.986 467.025h-17.5v-57.185l.309.282c8.754 8.349 23.8 7.658 31.79-1.406 8.375-9.152 7.744-23.412-1.408-31.788l-117.999-107.997c-8.661-7.931-21.723-7.932-30.382-.001l-71.068 65.045c-3.056 2.796-3.266 7.54-.469 10.596 2.797 3.055 7.541 3.266 10.596.469l71.069-65.046c2.886-2.643 7.238-2.642 10.125.001l118 107.999c3.051 2.792 3.261 7.546.47 10.596-2.658 3.039-7.674 3.248-10.597.47l-107.873-98.73c-2.866-2.623-7.261-2.623-10.127 0l-107.874 98.73c-1.477 1.352-3.387 2.044-5.394 1.96-2.001-.089-3.849-.951-5.201-2.429-2.792-3.051-2.581-7.805.469-10.597l21.199-19.402c3.056-2.796 3.266-7.54.469-10.596s-7.542-3.266-10.596-.469l-21.2 19.402c-14.71 13.404-5.671 38.278 14.197 39.075 6.002.257 11.752-1.824 16.184-5.881l.31-.283v57.185h-17.5c-29.857 1.24-29.834 43.771 0 45h240c29.857-1.239 29.834-43.771.001-45zm-90.5-.12h-59v-55.38c1.625-39.144 57.389-39.114 59 0zm-29.5-150.877 87.5 80.084v70.793h-43v-55.38c-2.451-59.048-86.571-59.003-89 0v55.38h-43v-70.794zm120 180.997h-240c-9.929-.353-9.922-14.65 0-15h240c9.929.353 9.921 14.651 0 15z"/><path d="m188.314 122.232v-10.573c12.777-8.306 12.763-27.538-.015-35.828-1.633-44.195-34.907-76.981-89.335-75.8-19.064-.001-35.531 3.431-48.944 10.2-3.698 1.865-5.183 6.376-3.317 10.074 1.867 3.698 6.377 5.184 10.075 3.316 11.298-5.701 25.492-8.592 42.187-8.592 61.399 0 72.295 39.39 74.064 57.219h-148.118c.697-6.804 2.839-17.757 9.282-28.145 2.183-3.52 1.1-8.144-2.42-10.326-3.521-2.186-8.144-1.101-10.327 2.42-9.553 15.401-11.513 31.294-11.815 39.633-12.785 8.295-12.788 27.527-.016 35.829v10.573c0 12.963 10.546 23.51 23.51 23.51h131.68c12.963-.001 23.509-10.547 23.509-23.51zm-11.87-34.983c8.605.306 8.599 12.697 0 13h-154.958c-8.605-.306-8.599-12.697 0-13zm-151.829 34.983v-6.982h148.699v6.982c0 4.692-3.817 8.51-8.51 8.51h-131.679c-4.693-.001-8.51-3.818-8.51-8.51z"/><path d="m511.986 141.984c0-9.667-5.629-18.042-13.78-22.025v-106.53c0-3.607-1.486-7.118-4.077-9.632-2.616-2.537-6.064-3.896-9.696-3.764-24.49.763-48.288 5.946-70.731 15.407-3.817 1.609-5.607 6.008-3.998 9.824 1.609 3.817 6.007 5.61 9.824 3.998 20.222-8.523 41.64-13.291 63.678-14.177v22.546c-37.284 3.619-72.402 17.584-102.037 40.563l-14.741-14.741c7.334-6.756 15.255-12.946 23.567-18.415 3.46-2.277 4.419-6.928 2.143-10.389-2.277-3.459-6.928-4.417-10.388-2.143-9.49 6.245-18.509 13.357-26.816 21.151-2.657 2.503-4.151 5.894-4.206 9.548-.054 3.606 1.376 7.136 3.925 9.686l43.167 43.167c-5.599 18.215 12.165 35.979 30.377 30.386l49.156 49.156c3.519 3.527 8.785 4.534 13.315 2.647 4.579-1.896 7.538-6.325 7.538-11.281v-22.959c8.151-3.982 13.78-12.356 13.78-22.023zm-22.581 9.304c-.073.013-.147.02-.219.034-5.735 1.119-11.262-3.494-11.2-9.339.521-12.602 18.48-12.6 19 0 0 4.581-3.259 8.415-7.581 9.305zm-77.573-28.356c0-5.237 4.262-9.499 9.5-9.499 12.604.522 12.599 18.479 0 18.999-5.238 0-9.5-4.262-9.5-9.5zm28.945 14.88c16.849-23.069-11.267-51.163-34.319-34.329l-14.588-14.587c26.681-20.254 58.052-32.683 91.336-36.181v17.236c-13.975-18.66-43.979-8.967-44.124 14.652.146 23.62 30.154 33.31 44.124 14.651v18.611c-26.824 5.294-26.805 42.953 0 48.236v14.14zm32.304-53.209c0 5.238-4.262 9.5-9.5 9.5-12.603-.522-12.599-18.48 0-19 5.239 0 9.5 4.262 9.5 9.5z"/><path d="m100.024 155.14c-.344-9.931-14.66-9.923-15 0v5c.344 9.931 14.66 9.923 15 0z"/><path d="m92.524 182.789c-4.142 0-7.5 3.357-7.5 7.5v10.05c.344 9.931 14.66 9.923 15 0v-10.05c0-4.142-3.358-7.5-7.5-7.5z"/><path d="m99.732 228.408c-2.482-8.215-14.565-6.607-14.708 2.08v4.999c0 4.143 3.358 7.5 7.5 7.5h4.725c8.455-.118 10.318-11.748 2.483-14.579z"/><path d="m130.07 227.987c-9.931.344-9.923 14.659 0 15h11.576c9.931-.344 9.923-14.659 0-15z"/><path d="m186.056 235.487c0-4.143-3.358-7.5-7.5-7.5h-4.726c-8.455.118-10.318 11.749-2.482 14.579 2.482 8.216 14.565 6.609 14.708-2.079z"/><path d="m186.056 259.69c-.344-9.931-14.66-9.923-15 0v6.4c.344 9.931 14.66 9.923 15 0z"/><path d="m178.556 277.793c-4.142 0-7.5 3.357-7.5 7.5v5c.344 9.931 14.66 9.923 15 0v-5c0-4.143-3.357-7.5-7.5-7.5z"/><path d="m421.332 160.049c-4.142 0-7.5 3.357-7.5 7.5v5c.344 9.931 14.66 9.923 15 0v-5c0-4.143-3.358-7.5-7.5-7.5z"/><path d="m421.332 188.004c-4.142 0-7.5 3.357-7.5 7.5v7.651c.344 9.931 14.66 9.923 15 0v-7.651c0-4.143-3.358-7.5-7.5-7.5z"/><path d="m421.332 218.61c-3.384 0-6.245 2.241-7.179 5.321-8.125 2.571-6.45 14.542 2.179 14.679h5c4.142 0 7.5-3.357 7.5-7.5v-5c0-4.142-3.358-7.5-7.5-7.5z"/><path d="m384.04 238.61c9.931-.344 9.923-14.659 0-15h-10.764c-9.931.344-9.923 14.659 0 15z"/><path d="m335.986 243.609c3.384 0 6.245-2.241 7.178-5.32 8.125-2.571 6.451-14.542-2.178-14.679h-5c-4.142 0-7.5 3.357-7.5 7.5v4.999c0 4.143 3.358 7.5 7.5 7.5z"/><path d="m335.986 269.629c4.142 0 7.5-3.357 7.5-7.5v-6.505c-.344-9.931-14.66-9.923-15 0v6.505c0 4.142 3.358 7.5 7.5 7.5z"/><path d="m335.986 294.142c4.142 0 7.5-3.357 7.5-7.5v-5c-.344-9.931-14.66-9.923-15 0v5c0 4.143 3.358 7.5 7.5 7.5z"/></g><g transform="matrix(0.1363201766329438 -0.03652688124086529 0.03652688124086529 0.1363201766329438 132.13392952808607 150.25126262355525)" id="L1_12"><path d="M472,272V168c0-13.232-10.768-24-24-24h-16c-6.168,0-11.744,2.408-16,6.24c-4.256-3.84-9.832-6.24-16-6.24h-16     c-6.168,0-11.744,2.408-16,6.24c-4.256-3.84-9.832-6.24-16-6.24h-16c-13.232,0-24,10.768-24,24v102.656     c-18.456-12.792-45.392-23.68-84.832-28.288l12.6-88.208c0.152-1.064,0.232-2.144,0.232-3.224     C240,138.288,229.712,128,217.064,128H144V56c0-4.408,3.592-8,8-8h64c13.232,0,24-10.768,24-24S229.232,0,216,0h-72     c-26.472,0-48,21.528-48,48v80H22.936C10.288,128,0,138.288,0,150.936c0,1.08,0.08,2.16,0.232,3.248l19.28,134.944     C0.496,311.776,0,334.112,0,336c0,13.952,9.024,25.712,21.496,30.088C18.032,371.2,16,377.368,16,384     c0,8.528,3.4,16.232,8.856,21.976C10.056,414.16,0,429.92,0,448c0,26.472,21.528,48,48,48h240h16h192V328v-8v-24     C496,282.768,485.232,272,472,272z M424,168c0-4.408,3.592-8,8-8h16c4.408,0,8,3.592,8,8v104h-32V168z M376,168     c0-4.408,3.592-8,8-8h16c4.408,0,8,3.592,8,8v104h-32V168z M328,168c0-4.408,3.592-8,8-8h16c4.408,0,8,3.592,8,8v104h-32V168z      M200,16h16c4.408,0,8,3.592,8,8s-3.592,8-8,8h-16V16z M168,16h16v16h-16V16z M112,48c0-17.648,14.352-32,32-32h8v16     c-13.232,0-24,10.768-24,24v72h-16V48z M17.224,160l-1.152-8.056c-0.048-0.336-0.072-0.672-0.072-1.008     c0-3.824,3.112-6.936,6.936-6.936H96h48h73.064c3.824,0,6.936,3.112,6.936,6.936c0,0.336-0.024,0.672-0.064,0.984l-1.16,8.08H200     v16h20.488l-4.568,32H24.08l-4.568-32H184v-16H17.224z M213.64,224l-2.416,16.928C202.656,240.336,193.632,240,184,240h-16     c-69.712,0-110.432,16.232-134.296,35.352L26.368,224H213.64z M16,336c0-0.8,1.736-80,152-80h16c149.224,0,151.96,76.784,152,80     c0,8.824-7.176,16-16,16h-8h-8H48H32C23.176,352,16,344.824,16,336z M48,400c-8.824,0-16-7.176-16-16c0-8.824,7.176-16,16-16h256     c8.824,0,16,7.176,16,16c0,8.824-7.176,16-16,16H48z M270.608,416l-32.824,38.296L150.24,416H270.608z M304,480h-16H48     c-17.648,0-32-14.352-32-32s14.352-32,32-32h62.328l131.888,57.704L291.68,416H304c17.648,0,32,14.352,32,32S321.648,480,304,480     z M327.152,405.976C332.6,400.232,336,392.528,336,384c0-5.856-1.696-11.272-4.448-16H448v80h-96c0-5.616-1.024-10.984-2.8-16     H400v-16h-60.32C336.096,412.008,331.88,408.592,327.152,405.976z M480,320h-16v16h16v144H339.68     c4.152-4.624,7.408-10.032,9.52-16H464V352H347.552c2.752-4.728,4.448-10.144,4.448-16h96v-16h-98.712     c-2.6-8.896-7.736-20.44-17.752-32H472c4.408,0,8,3.584,8,8V320z"/><rect x="416px" y="416px" width="16px" height="16px"/><rect x="104px" y="272px" width="16px" height="16px"/><rect x="136px" y="288px" width="16px" height="16px"/><rect x="168px" y="272px" width="16px" height="16px"/><rect x="216px" y="296px" width="16px" height="16px"/><rect x="256px" y="272px" width="16px" height="16px"/><rect x="56px" y="304px" width="16px" height="16px"/></g><g transform="matrix(0.13671875 0 0 0.13671875 315 140)" id="L1_14"><path d="m439.845 379.145c-2.499 1.473-5.129 2.685-7.845 3.645v129.21c10.622-2.979 26.925-8.908 42.031-21.326 25.195-20.71 37.969-51.091 37.969-90.298v-94.291c-5.69 9.296-12.159 18.277-19.399 26.882-23.974 28.492-48.153 43.466-52.756 46.178z"/><path d="m357 385.376c0 9.362-2.158 18.228-5.999 26.132l50.999 17.761v-46.466l-45-15.672z"/><path d="m237 325.34-237-82.538v46.466l237 82.538z"/><path d="m297 445.376c-26.327 0-48.732-17.052-56.792-40.685l-240.208-83.656v39.34c0 6.383 4.039 12.066 10.066 14.165l391.934 136.495v-49.999l-72.516-25.254c-9.37 6.059-20.519 9.594-32.484 9.594z"/><path d="m172 125c0 35.841 29.159 65 65 65s65-29.159 65-65c0-31.083-21.936-57.125-51.136-63.496-4.197-24.817-19.849-46.263-42.934-57.806l-4.223-2.111c-7.406-3.704-16.418-.701-20.124 6.708-3.705 7.409-.702 16.42 6.708 20.124l4.223 2.111c13.01 6.506 22.232 18.058 25.821 31.645-27.791 7.378-48.335 32.743-48.335 62.825z"/><path d="m512 200.376c0-4.142-.993-102.014-87.385-152.923-3.804-2.242-8.402-2.693-12.57-1.235-12.606 4.412-47.657 16.62-92.299 32.159 7.796 13.782 12.254 29.691 12.254 46.623 0 52.383-42.617 95-95 95-47.337 0-86.695-34.803-93.839-80.164-61.35 21.355-113.536 39.529-133.116 46.382-6.021 2.107-10.05 7.791-10.045 14.17.005 6.378 4.043 12.056 10.066 14.153l256.934 89.479v81.355c0 16.569 13.431 30 30 30s30-13.431 30-30v-60.46l85.066 29.625c1.604.56 3.271.835 4.933.835 2.649 0 5.283-.702 7.616-2.077 3.569-2.102 87.385-52.648 87.385-152.922zm-160 10c-8.284 0-15-6.716-15-15s6.716-15 15-15 15 6.716 15 15-6.716 15-15 15zm30 70c-8.284 0-15-6.716-15-15s6.716-15 15-15 15 6.716 15 15-6.716 15-15 15zm30-130c-8.284 0-15-6.716-15-15s6.716-15 15-15 15 6.716 15 15-6.716 15-15 15zm20 70c-8.284 0-15-6.716-15-15s6.716-15 15-15 15 6.716 15 15-6.716 15-15 15z"/></g><g transform="matrix(0.13950827717781067 0 0 0.13950827717781067 223 264)" id="L1_15"><path d="M407.71,124.995c-1.287-1.347-3.07-2.113-4.937-2.113H204.8c-1.867,0-3.651,0.766-4.937,2.113    c-1.29,1.347-1.971,3.166-1.884,5.033l4.931,106.027c0.174,3.761,3.42,6.728,7.137,6.501c3.767-0.174,6.678-3.374,6.504-7.141    l-4.599-98.879h183.675l-13.02,279.893H229.292c-3.77,0-6.827,3.053-6.827,6.827s3.057,6.827,6.827,6.827h159.829    c3.647,0,6.649-2.867,6.82-6.508l13.653-293.547C409.68,128.161,409.001,126.342,407.71,124.995z"/><path d="M279.895,375.469H34.135c-3.77,0-6.827,3.053-6.827,6.827c0,26.347,21.437,47.787,47.787,47.787h163.84    c26.349,0,47.787-21.441,47.787-47.787C286.721,378.522,283.665,375.469,279.895,375.469z M238.935,416.429H75.095    c-16.485,0-30.278-11.747-33.447-27.307h230.734C269.211,404.682,255.418,416.429,238.935,416.429z"/><path d="M279.895,334.509H34.135c-15.056,0-27.307,12.247-27.307,27.307s12.25,27.307,27.307,27.307h245.76    c15.056,0,27.307-12.247,27.307-27.307S294.951,334.509,279.895,334.509z M279.895,375.469H34.135    c-7.53,0-13.653-6.127-13.653-13.653c0-7.526,6.124-13.653,13.653-13.653h245.76c7.53,0,13.653,6.127,13.653,13.653    C293.548,369.342,287.424,375.469,279.895,375.469z"/><path d="M300.373,204.802c-31.147,0-58.329,21.042-66.103,51.161c-0.944,3.654,1.253,7.373,4.903,8.32    c3.659,0.934,7.373-1.253,8.317-4.907c6.216-24.095,27.962-40.921,52.883-40.921c30.114,0,54.613,24.499,54.613,54.613    s-24.499,54.613-54.613,54.613c-6.263,0-12.397-1.046-18.227-3.113c-3.55-1.246-7.456,0.601-8.713,4.154    c-1.26,3.553,0.601,7.453,4.154,8.713c7.298,2.586,14.964,3.9,22.787,3.9c37.644,0,68.265-30.626,68.265-68.267    S338.017,204.802,300.373,204.802z"/><path d="M170.668,225.282h-27.307c-63.993,0-116.053,52.06-116.053,116.053c0,3.773,3.057,6.827,6.827,6.827h245.76    c3.77,0,6.827-3.053,6.827-6.827C286.721,277.343,234.661,225.282,170.668,225.282z M41.188,334.509    c3.526-53.294,48.003-95.573,102.173-95.573h27.307c54.17,0,98.647,42.279,102.173,95.573H41.188z"/><rect x="88px" y="266px" width="13px" height="13px"/><rect x="81px" y="293px" width="13px" height="13px"/><rect x="163px" y="259px" width="13px" height="13px"/><rect x="204px" y="293px" width="13px" height="13px"/><rect x="143px" y="300px" width="13px" height="13px"/><path d="M416.428,95.576H184.321c-3.77,0-6.827,3.053-6.827,6.827v27.307c0,3.773,3.057,6.827,6.827,6.827h232.107    c3.77,0,6.827-3.053,6.827-6.827v-27.307C423.255,98.629,420.198,95.576,416.428,95.576z M409.601,122.882H191.148v-13.653    h218.453V122.882z"/><path d="M238.784,100.969l-20.48-95.573c-0.79-3.68-4.413-6.04-8.107-5.239c-3.686,0.787-6.036,4.42-5.246,8.107l20.48,95.573    c0.686,3.2,3.519,5.393,6.67,5.393c0.473,0,0.957-0.048,1.437-0.154C237.225,108.289,239.575,104.655,238.784,100.969z"/></g></defs><g fi:class="KUsePattern"><pattern id="pattern_L1_5" width="350" height="350" patternUnits="userSpaceOnUse"><use xlink:href="#L1_5" x="-350" y="-350"/><use xlink:href="#L1_5" x="0" y="-350"/><use xlink:href="#L1_5" x="350" y="-350"/><use xlink:href="#L1_5" x="-350" y="0"/><use xlink:href="#L1_5" x="0" y="0"/><use xlink:href="#L1_5" x="350" y="0"/><use xlink:href="#L1_5" x="-350" y="350"/><use xlink:href="#L1_5" x="0" y="350"/><use xlink:href="#L1_5" x="350" y="350"/></pattern><rect x="0" y="0" width="100%" height="100%" fill="url(#pattern_L1_5)"/></g><g fi:class="KUsePattern"><pattern id="pattern_L1_7" width="350" height="350" patternUnits="userSpaceOnUse"><use xlink:href="#L1_7" x="-350" y="-350"/><use xlink:href="#L1_7" x="0" y="-350"/><use xlink:href="#L1_7" x="350" y="-350"/><use xlink:href="#L1_7" x="-350" y="0"/><use xlink:href="#L1_7" x="0" y="0"/><use xlink:href="#L1_7" x="350" y="0"/><use xlink:href="#L1_7" x="-350" y="350"/><use xlink:href="#L1_7" x="0" y="350"/><use xlink:href="#L1_7" x="350" y="350"/></pattern><rect x="0" y="0" width="100%" height="100%" fill="url(#pattern_L1_7)"/></g><g fi:class="KUsePattern"><pattern id="pattern_L1_8" width="350" height="350" patternUnits="userSpaceOnUse"><use xlink:href="#L1_8" x="-350" y="-350"/><use xlink:href="#L1_8" x="0" y="-350"/><use xlink:href="#L1_8" x="350" y="-350"/><use xlink:href="#L1_8" x="-350" y="0"/><use xlink:href="#L1_8" x="0" y="0"/><use xlink:href="#L1_8" x="350" y="0"/><use xlink:href="#L1_8" x="-350" y="350"/><use xlink:href="#L1_8" x="0" y="350"/><use xlink:href="#L1_8" x="350" y="350"/></pattern><rect x="0" y="0" width="100%" height="100%" fill="url(#pattern_L1_8)"/></g><g fi:class="KUsePattern"><pattern id="pattern_L1_9" width="350" height="350" patternUnits="userSpaceOnUse"><use xlink:href="#L1_9" x="-350" y="-350"/><use xlink:href="#L1_9" x="0" y="-350"/><use xlink:href="#L1_9" x="350" y="-350"/><use xlink:href="#L1_9" x="-350" y="0"/><use xlink:href="#L1_9" x="0" y="0"/><use xlink:href="#L1_9" x="350" y="0"/><use xlink:href="#L1_9" x="-350" y="350"/><use xlink:href="#L1_9" x="0" y="350"/><use xlink:href="#L1_9" x="350" y="350"/></pattern><rect x="0" y="0" width="100%" height="100%" fill="url(#pattern_L1_9)"/></g><g fi:class="KUsePattern"><pattern id="pattern_L1_10" width="350" height="350" patternUnits="userSpaceOnUse"><use xlink:href="#L1_10" x="-350" y="-350"/><use xlink:href="#L1_10" x="0" y="-350"/><use xlink:href="#L1_10" x="350" y="-350"/><use xlink:href="#L1_10" x="-350" y="0"/><use xlink:href="#L1_10" x="0" y="0"/><use xlink:href="#L1_10" x="350" y="0"/><use xlink:href="#L1_10" x="-350" y="350"/><use xlink:href="#L1_10" x="0" y="350"/><use xlink:href="#L1_10" x="350" y="350"/></pattern><rect x="0" y="0" width="100%" height="100%" fill="url(#pattern_L1_10)"/></g><g fi:class="KUsePattern"><pattern id="pattern_L1_12" width="350" height="350" patternUnits="userSpaceOnUse"><use xlink:href="#L1_12" x="-350" y="-350"/><use xlink:href="#L1_12" x="0" y="-350"/><use xlink:href="#L1_12" x="350" y="-350"/><use xlink:href="#L1_12" x="-350" y="0"/><use xlink:href="#L1_12" x="0" y="0"/><use xlink:href="#L1_12" x="350" y="0"/><use xlink:href="#L1_12" x="-350" y="350"/><use xlink:href="#L1_12" x="0" y="350"/><use xlink:href="#L1_12" x="350" y="350"/></pattern><rect x="0" y="0" width="100%" height="100%" fill="url(#pattern_L1_12)"/></g><g fi:class="KUsePattern"><pattern id="pattern_L1_14" width="350" height="350" patternUnits="userSpaceOnUse"><use xlink:href="#L1_14" x="-350" y="-350"/><use xlink:href="#L1_14" x="0" y="-350"/><use xlink:href="#L1_14" x="350" y="-350"/><use xlink:href="#L1_14" x="-350" y="0"/><use xlink:href="#L1_14" x="0" y="0"/><use xlink:href="#L1_14" x="350" y="0"/><use xlink:href="#L1_14" x="-350" y="350"/><use xlink:href="#L1_14" x="0" y="350"/><use xlink:href="#L1_14" x="350" y="350"/></pattern><rect x="0" y="0" width="100%" height="100%" fill="url(#pattern_L1_14)"/></g><g fi:class="KUsePattern"><pattern id="pattern_L1_15" width="350" height="350" patternUnits="userSpaceOnUse"><use xlink:href="#L1_15" x="-350" y="-350"/><use xlink:href="#L1_15" x="0" y="-350"/><use xlink:href="#L1_15" x="350" y="-350"/><use xlink:href="#L1_15" x="-350" y="0"/><use xlink:href="#L1_15" x="0" y="0"/><use xlink:href="#L1_15" x="350" y="0"/><use xlink:href="#L1_15" x="-350" y="350"/><use xlink:href="#L1_15" x="0" y="350"/><use xlink:href="#L1_15" x="350" y="350"/></pattern><rect x="0" y="0" width="100%" height="100%" fill="url(#pattern_L1_15)"/></g></svg>